ffmpeg started on 2025-05-05 at 11:12:08
Report written to "D:\Convert\FFMetrics\reports\psnr_report-6.txt"
Log level: 32
Command line:
ffmpeg -hide_banner -nostdin -i "G:\\\xc0\xed\xe8\xec\xe5\\\xce\xed\xe3\xee\xe8\xed\xe3\xe8\\!_35_\xcb\xe5\xf2\xee_2024\\JamClub-1\\\xdd\xf2\xee\xf2 \xec\xe8\xf0 \xf1\xeb\xe8\xf8\xea\xee\xec \xed\xe5\xf1\xee\xe2\xe5\xf0\xf8\xe5\xed\xe5\xed\\JamClub_Kono_Sekai_wa_Fukanzen_Sugiru_10_1080p_HEVC.mkv" -i "G:\\\xc0\xed\xe8\xec\xe5\\\xce\xed\xe3\xee\xe8\xed\xe3\xe8\\!_35_\xcb\xe5\xf2\xee_2024\\JamClub-1\\\xdd\xf2\xee\xf2 \xec\xe8\xf0 \xf1\xeb\xe8\xf8\xea\xee\xec \xed\xe5\xf1\xee\xe2\xe5\xf0\xf8\xe5\xed\xe5\xed\\JamClub_Kono_Sekai_wa_Fukanzen_Sugiru_10_1080p.mp4" -lavfi "[0:v]settb=AVTB,setpts=PTS-STARTPTS,format=pix_fmts=yuv420p10,fps=24000/1001,scale=1920:1080:flags=bicubic[main];[1:v]settb=AVTB,setpts=PTS-STARTPTS,format=pix_fmts=yuv420p,fps=24000/1001,scale=1920:1080:flags=bicubic[ref];[main][ref]psnr=eof_action=endall:stats_file='D\\:/Convert/FFMetrics/logs/psnr_logfile-6.txt'" -f null -
Input #0, matroska,webm, from 'G:\Аниме\Онгоинги\!_35_Лето_2024\JamClub-1\Этот мир слишком несовершенен\JamClub_Kono_Sekai_wa_Fukanzen_Sugiru_10_1080p_HEVC.mkv':
  Metadata:
    COMPATIBLE_BRANDS: isomiso2avc1mp41
    MAJOR_BRAND     : isom
    MINOR_VERSION   : 512
    ENCODER         : Lavf61.7.100
  Duration: 00:24:27.35, start: -0.001000, bitrate: 1330 kb/s
  Stream #0:0: Video: hevc (Main 10), yuv420p10le(tv, bt709, progressive), 1920x1080 [SAR 1:1 DAR 16:9], 23.98 fps, 23.98 tbr, 1k tbn (default)
      Metadata:
        HANDLER_NAME    : VideoHandler
        VENDOR_ID       : [0][0][0][0]
        ENCODER         : Lavc61.19.100 libx265
        BPS             : 1132452
        DURATION        : 00:24:27.215708333
        NUMBER_OF_FRAMES: 35178
        NUMBER_OF_BYTES : 207693953
        _STATISTICS_WRITING_APP: mkvpropedit v66.0.0 ('Josie') 64-bit
        _STATISTICS_WRITING_DATE_UTC: 2025-05-04 17:17:52
        _STATISTICS_TAGS: BPS DURATION NUMBER_OF_FRAMES NUMBER_OF_BYTES
  Stream #0:1(eng): Audio: aac (LC), 48000 Hz, stereo, fltp (default)
      Metadata:
        HANDLER_NAME    : SoundHandler
        VENDOR_ID       : [0][0][0][0]
        ENCODER         : Lavc61.19.100 aac
        BPS             : 194255
        DURATION        : 00:24:27.309000000
        NUMBER_OF_FRAMES: 68781
        NUMBER_OF_BYTES : 35629142
        _STATISTICS_WRITING_APP: mkvpropedit v66.0.0 ('Josie') 64-bit
        _STATISTICS_WRITING_DATE_UTC: 2025-05-04 17:17:52
        _STATISTICS_TAGS: BPS DURATION NUMBER_OF_FRAMES NUMBER_OF_BYTES
Input #1, mov,mp4,m4a,3gp,3g2,mj2, from 'G:\Аниме\Онгоинги\!_35_Лето_2024\JamClub-1\Этот мир слишком несовершенен\JamClub_Kono_Sekai_wa_Fukanzen_Sugiru_10_1080p.mp4':
  Metadata:
    major_brand     : isom
    minor_version   : 512
    compatible_brands: isomiso2avc1mp41
    encoder         : Lavf60.16.100
  Duration: 00:24:27.33, start: 0.000000, bitrate: 3710 kb/s
  Stream #1:0[0x1](und): Video: h264 (High) (avc1 / 0x31637661), yuv420p(progressive), 1920x1080 [SAR 1:1 DAR 16:9], 3512 kb/s, 23.98 fps, 23.98 tbr, 90k tbn (default)
      Metadata:
        handler_name    : VideoHandler
        vendor_id       : [0][0][0][0]
  Stream #1:1[0x2](eng): Audio: aac (LC) (mp4a / 0x6134706D), 48000 Hz, stereo, fltp, 191 kb/s (default)
      Metadata:
        handler_name    : SoundHandler
        vendor_id       : [0][0][0][0]
Stream mapping:
  Stream #0:0 (hevc) -> settb:default
  Stream #1:0 (h264) -> settb:default
  psnr:default -> Stream #0:0 (wrapped_avframe)
  Stream #0:1 -> #0:1 (aac (native) -> pcm_s16le (native))
Output #0, null, to 'pipe:':
  Metadata:
    COMPATIBLE_BRANDS: isomiso2avc1mp41
    MAJOR_BRAND     : isom
    MINOR_VERSION   : 512
    encoder         : Lavf61.7.100
  Stream #0:0: Video: wrapped_avframe, yuv420p10le(tv, bt709, progressive), 1920x1080 [SAR 1:1 DAR 16:9], q=2-31, 200 kb/s, 23.98 fps, 23.98 tbn
      Metadata:
        encoder         : Lavc61.19.100 wrapped_avframe
  Stream #0:1(eng): Audio: pcm_s16le, 48000 Hz, stereo, s16, 1536 kb/s (default)
      Metadata:
        HANDLER_NAME    : SoundHandler
        VENDOR_ID       : [0][0][0][0]
        _STATISTICS_TAGS: BPS DURATION NUMBER_OF_FRAMES NUMBER_OF_BYTES
        BPS             : 194255
        DURATION        : 00:24:27.309000000
        NUMBER_OF_FRAMES: 68781
        NUMBER_OF_BYTES : 35629142
        _STATISTICS_WRITING_APP: mkvpropedit v66.0.0 ('Josie') 64-bit
        _STATISTICS_WRITING_DATE_UTC: 2025-05-04 17:17:52
        encoder         : Lavc61.19.100 pcm_s16le
frame=  111 fps=0.0 q=-0.0 size=N/A time=00:00:04.62 bitrate=N/A speed=8.91x    frame=  264 fps=257 q=-0.0 size=N/A time=00:00:11.01 bitrate=N/A speed=10.7x    frame=  455 fps=293 q=-0.0 size=N/A time=00:00:18.97 bitrate=N/A speed=12.2x    frame=  626 fps=305 q=-0.0 size=N/A time=00:00:26.10 bitrate=N/A speed=12.7x    frame=  852 fps=331 q=-0.0 size=N/A time=00:00:35.53 bitrate=N/A speed=13.8x    frame= 1063 fps=345 q=-0.0 size=N/A time=00:00:44.33 bitrate=N/A speed=14.4x    frame= 1261 fps=349 q=-0.0 size=N/A time=00:00:52.59 bitrate=N/A speed=14.6x    frame= 1516 fps=368 q=-0.0 size=N/A time=00:01:03.22 bitrate=N/A speed=15.3x    frame= 1747 fps=377 q=-0.0 size=N/A time=00:01:12.86 bitrate=N/A speed=15.7x    frame= 1986 fps=386 q=-0.0 size=N/A time=00:01:22.83 bitrate=N/A speed=16.1x    frame= 2209 fps=390 q=-0.0 size=N/A time=00:01:32.13 bitrate=N/A speed=16.3x    frame= 2356 fps=381 q=-0.0 size=N/A time=00:01:38.26 bitrate=N/A speed=15.9x    frame= 2489 fps=372 q=-0.0 size=N/A time=00:01:43.81 bitrate=N/A speed=15.5x    frame= 2625 fps=363 q=-0.0 size=N/A time=00:01:49.48 bitrate=N/A speed=15.2x    frame= 2820 fps=365 q=-0.0 size=N/A time=00:01:57.61 bitrate=N/A speed=15.2x    frame= 3061 fps=371 q=-0.0 size=N/A time=00:02:07.66 bitrate=N/A speed=15.5x    frame= 3261 fps=372 q=-0.0 size=N/A time=00:02:16.01 bitrate=N/A speed=15.5x    frame= 3453 fps=372 q=-0.0 size=N/A time=00:02:24.01 bitrate=N/A speed=15.5x    frame= 3649 fps=373 q=-0.0 size=N/A time=00:02:32.19 bitrate=N/A speed=15.5x    frame= 3845 fps=373 q=-0.0 size=N/A time=00:02:40.36 bitrate=N/A speed=15.5x    frame= 4007 fps=370 q=-0.0 size=N/A time=00:02:47.12 bitrate=N/A speed=15.4x    frame= 4188 fps=369 q=-0.0 size=N/A time=00:02:54.67 bitrate=N/A speed=15.4x    frame= 4405 fps=372 q=-0.0 size=N/A time=00:03:03.72 bitrate=N/A speed=15.5x    frame= 4640 fps=375 q=-0.0 size=N/A time=00:03:13.52 bitrate=N/A speed=15.6x    frame= 4873 fps=378 q=-0.0 size=N/A time=00:03:23.24 bitrate=N/A speed=15.8x    frame= 5122 fps=382 q=-0.0 size=N/A time=00:03:33.63 bitrate=N/A speed=15.9x    frame= 5366 fps=386 q=-0.0 size=N/A time=00:03:43.80 bitrate=N/A speed=16.1x    frame= 5583 fps=387 q=-0.0 size=N/A time=00:03:52.85 bitrate=N/A speed=16.1x    frame= 5810 fps=388 q=-0.0 size=N/A time=00:04:02.32 bitrate=N/A speed=16.2x    frame= 6043 fps=391 q=-0.0 size=N/A time=00:04:12.04 bitrate=N/A speed=16.3x    frame= 6247 fps=391 q=-0.0 size=N/A time=00:04:20.55 bitrate=N/A speed=16.3x    frame= 6488 fps=393 q=-0.0 size=N/A time=00:04:30.60 bitrate=N/A speed=16.4x    frame= 6747 fps=397 q=-0.0 size=N/A time=00:04:41.40 bitrate=N/A speed=16.5x    frame= 7014 fps=400 q=-0.0 size=N/A time=00:04:52.54 bitrate=N/A speed=16.7x    frame= 7233 fps=401 q=-0.0 size=N/A time=00:05:01.67 bitrate=N/A speed=16.7x    frame= 7467 fps=402 q=-0.0 size=N/A time=00:05:11.43 bitrate=N/A speed=16.8x    frame= 7702 fps=404 q=-0.0 size=N/A time=00:05:21.23 bitrate=N/A speed=16.8x    frame= 7952 fps=406 q=-0.0 size=N/A time=00:05:31.66 bitrate=N/A speed=16.9x    frame= 8202 fps=408 q=-0.0 size=N/A time=00:05:42.09 bitrate=N/A speed=  17x    frame= 8441 fps=409 q=-0.0 size=N/A time=00:05:52.06 bitrate=N/A speed=17.1x    frame= 8657 fps=410 q=-0.0 size=N/A time=00:06:01.06 bitrate=N/A speed=17.1x    frame= 8890 fps=411 q=-0.0 size=N/A time=00:06:10.78 bitrate=N/A speed=17.1x    frame= 9110 fps=411 q=-0.0 size=N/A time=00:06:19.96 bitrate=N/A speed=17.1x    frame= 9387 fps=414 q=-0.0 size=N/A time=00:06:31.51 bitrate=N/A speed=17.3x    frame= 9636 fps=415 q=-0.0 size=N/A time=00:06:41.90 bitrate=N/A speed=17.3x    frame= 9822 fps=414 q=-0.0 size=N/A time=00:06:49.65 bitrate=N/A speed=17.3x    frame=10011 fps=413 q=-0.0 size=N/A time=00:06:57.54 bitrate=N/A speed=17.2x    frame=10240 fps=414 q=-0.0 size=N/A time=00:07:07.09 bitrate=N/A speed=17.3x    frame=10521 fps=416 q=-0.0 size=N/A time=00:07:18.81 bitrate=N/A speed=17.4x    frame=10756 fps=417 q=-0.0 size=N/A time=00:07:28.61 bitrate=N/A speed=17.4x    frame=10983 fps=418 q=-0.0 size=N/A time=00:07:38.08 bitrate=N/A speed=17.4x    frame=11267 fps=420 q=-0.0 size=N/A time=00:07:49.92 bitrate=N/A speed=17.5x    frame=11515 fps=421 q=-0.0 size=N/A time=00:08:00.27 bitrate=N/A speed=17.6x    frame=11761 fps=422 q=-0.0 size=N/A time=00:08:10.53 bitrate=N/A speed=17.6x    frame=12006 fps=423 q=-0.0 size=N/A time=00:08:20.75 bitrate=N/A speed=17.7x    frame=12259 fps=425 q=-0.0 size=N/A time=00:08:31.30 bitrate=N/A speed=17.7x    frame=12520 fps=426 q=-0.0 size=N/A time=00:08:42.18 bitrate=N/A speed=17.8x    frame=12779 fps=427 q=-0.0 size=N/A time=00:08:52.99 bitrate=N/A speed=17.8x    frame=13032 fps=428 q=-0.0 size=N/A time=00:09:03.54 bitrate=N/A speed=17.9x    frame=13270 fps=429 q=-0.0 size=N/A time=00:09:13.46 bitrate=N/A speed=17.9x    frame=13538 fps=430 q=-0.0 size=N/A time=00:09:24.64 bitrate=N/A speed=17.9x    frame=13763 fps=430 q=-0.0 size=N/A time=00:09:34.03 bitrate=N/A speed=  18x    frame=14028 fps=432 q=-0.0 size=N/A time=00:09:45.08 bitrate=N/A speed=  18x    frame=14262 fps=432 q=-0.0 size=N/A time=00:09:54.84 bitrate=N/A speed=  18x    frame=14515 fps=433 q=-0.0 size=N/A time=00:10:05.39 bitrate=N/A speed=18.1x    frame=14744 fps=433 q=-0.0 size=N/A time=00:10:14.94 bitrate=N/A speed=18.1x    frame=14980 fps=433 q=-0.0 size=N/A time=00:10:24.79 bitrate=N/A speed=18.1x    frame=15248 fps=435 q=-0.0 size=N/A time=00:10:35.96 bitrate=N/A speed=18.1x    frame=15521 fps=436 q=-0.0 size=N/A time=00:10:47.35 bitrate=N/A speed=18.2x    frame=15793 fps=437 q=-0.0 size=N/A time=00:10:58.69 bitrate=N/A speed=18.2x    frame=16063 fps=439 q=-0.0 size=N/A time=00:11:09.96 bitrate=N/A speed=18.3x    frame=16321 fps=439 q=-0.0 size=N/A time=00:11:20.72 bitrate=N/A speed=18.3x    frame=16574 fps=440 q=-0.0 size=N/A time=00:11:31.27 bitrate=N/A speed=18.4x    frame=16812 fps=440 q=-0.0 size=N/A time=00:11:41.20 bitrate=N/A speed=18.4x    frame=17052 fps=441 q=-0.0 size=N/A time=00:11:51.21 bitrate=N/A speed=18.4x    frame=17297 fps=441 q=-0.0 size=N/A time=00:12:01.42 bitrate=N/A speed=18.4x    frame=17526 fps=441 q=-0.0 size=N/A time=00:12:10.98 bitrate=N/A speed=18.4x    frame=17786 fps=442 q=-0.0 size=N/A time=00:12:21.82 bitrate=N/A speed=18.4x    frame=18003 fps=442 q=-0.0 size=N/A time=00:12:30.87 bitrate=N/A speed=18.4x    frame=18248 fps=442 q=-0.0 size=N/A time=00:12:41.09 bitrate=N/A speed=18.4x    frame=18463 fps=442 q=-0.0 size=N/A time=00:12:50.06 bitrate=N/A speed=18.4x    frame=18704 fps=442 q=-0.0 size=N/A time=00:13:00.11 bitrate=N/A speed=18.4x    frame=18978 fps=443 q=-0.0 size=N/A time=00:13:11.54 bitrate=N/A speed=18.5x    frame=19191 fps=443 q=-0.0 size=N/A time=00:13:20.42 bitrate=N/A speed=18.5x    frame=19466 fps=444 q=-0.0 size=N/A time=00:13:31.89 bitrate=N/A speed=18.5x    frame=19713 fps=444 q=-0.0 size=N/A time=00:13:42.19 bitrate=N/A speed=18.5x    frame=19966 fps=445 q=-0.0 size=N/A time=00:13:52.74 bitrate=N/A speed=18.6x    frame=20215 fps=445 q=-0.0 size=N/A time=00:14:03.13 bitrate=N/A speed=18.6x    frame=20452 fps=446 q=-0.0 size=N/A time=00:14:13.01 bitrate=N/A speed=18.6x    frame=20712 fps=446 q=-0.0 size=N/A time=00:14:23.86 bitrate=N/A speed=18.6x    frame=20951 fps=446 q=-0.0 size=N/A time=00:14:33.83 bitrate=N/A speed=18.6x    frame=21201 fps=447 q=-0.0 size=N/A time=00:14:44.25 bitrate=N/A speed=18.6x    frame=21462 fps=447 q=-0.0 size=N/A time=00:14:55.14 bitrate=N/A speed=18.7x    frame=21714 fps=448 q=-0.0 size=N/A time=00:15:05.65 bitrate=N/A speed=18.7x    frame=21936 fps=448 q=-0.0 size=N/A time=00:15:14.91 bitrate=N/A speed=18.7x    frame=22177 fps=448 q=-0.0 size=N/A time=00:15:24.96 bitrate=N/A speed=18.7x    frame=22445 fps=449 q=-0.0 size=N/A time=00:15:36.14 bitrate=N/A speed=18.7x    frame=22718 fps=449 q=-0.0 size=N/A time=00:15:47.52 bitrate=N/A speed=18.7x    frame=22967 fps=450 q=-0.0 size=N/A time=00:15:57.91 bitrate=N/A speed=18.8x    frame=23221 fps=450 q=-0.0 size=N/A time=00:16:08.50 bitrate=N/A speed=18.8x    frame=23451 fps=450 q=-0.0 size=N/A time=00:16:18.10 bitrate=N/A speed=18.8x    frame=23700 fps=451 q=-0.0 size=N/A time=00:16:28.48 bitrate=N/A speed=18.8x    frame=23972 fps=451 q=-0.0 size=N/A time=00:16:39.83 bitrate=N/A speed=18.8x    frame=24232 fps=452 q=-0.0 size=N/A time=00:16:50.67 bitrate=N/A speed=18.8x    frame=24494 fps=452 q=-0.0 size=N/A time=00:17:01.60 bitrate=N/A speed=18.9x    frame=24714 fps=452 q=-0.0 size=N/A time=00:17:10.77 bitrate=N/A speed=18.9x    frame=24980 fps=453 q=-0.0 size=N/A time=00:17:21.87 bitrate=N/A speed=18.9x    frame=25241 fps=453 q=-0.0 size=N/A time=00:17:32.76 bitrate=N/A speed=18.9x    frame=25491 fps=453 q=-0.0 size=N/A time=00:17:43.18 bitrate=N/A speed=18.9x    frame=25729 fps=454 q=-0.0 size=N/A time=00:17:53.11 bitrate=N/A speed=18.9x    frame=25986 fps=454 q=-0.0 size=N/A time=00:18:03.83 bitrate=N/A speed=18.9x    frame=26255 fps=455 q=-0.0 size=N/A time=00:18:15.05 bitrate=N/A speed=  19x    frame=26523 fps=455 q=-0.0 size=N/A time=00:18:26.23 bitrate=N/A speed=  19x    frame=26743 fps=455 q=-0.0 size=N/A time=00:18:35.40 bitrate=N/A speed=  19x    frame=27000 fps=455 q=-0.0 size=N/A time=00:18:46.12 bitrate=N/A speed=  19x    frame=27238 fps=455 q=-0.0 size=N/A time=00:18:56.05 bitrate=N/A speed=  19x    frame=27453 fps=455 q=-0.0 size=N/A time=00:19:05.01 bitrate=N/A speed=  19x    frame=27670 fps=455 q=-0.0 size=N/A time=00:19:14.06 bitrate=N/A speed=  19x    frame=27905 fps=455 q=-0.0 size=N/A time=00:19:23.87 bitrate=N/A speed=  19x    frame=28106 fps=454 q=-0.0 size=N/A time=00:19:32.25 bitrate=N/A speed=18.9x    frame=28310 fps=454 q=-0.0 size=N/A time=00:19:40.76 bitrate=N/A speed=18.9x    frame=28542 fps=454 q=-0.0 size=N/A time=00:19:50.43 bitrate=N/A speed=18.9x    frame=28733 fps=453 q=-0.0 size=N/A time=00:19:58.40 bitrate=N/A speed=18.9x    frame=28917 fps=452 q=-0.0 size=N/A time=00:20:06.07 bitrate=N/A speed=18.9x    frame=29121 fps=452 q=-0.0 size=N/A time=00:20:14.58 bitrate=N/A speed=18.8x    frame=29368 fps=452 q=-0.0 size=N/A time=00:20:24.89 bitrate=N/A speed=18.8x    frame=29626 fps=452 q=-0.0 size=N/A time=00:20:35.65 bitrate=N/A speed=18.9x    frame=29854 fps=452 q=-0.0 size=N/A time=00:20:45.16 bitrate=N/A speed=18.9x    frame=30063 fps=452 q=-0.0 size=N/A time=00:20:53.87 bitrate=N/A speed=18.8x    frame=30280 fps=452 q=-0.0 size=N/A time=00:21:02.92 bitrate=N/A speed=18.8x    frame=30532 fps=452 q=-0.0 size=N/A time=00:21:13.43 bitrate=N/A speed=18.9x    frame=30794 fps=452 q=-0.0 size=N/A time=00:21:24.36 bitrate=N/A speed=18.9x    frame=31017 fps=452 q=-0.0 size=N/A time=00:21:33.70 bitrate=N/A speed=18.9x    frame=31282 fps=453 q=-0.0 size=N/A time=00:21:44.72 bitrate=N/A speed=18.9x    frame=31501 fps=452 q=-0.0 size=N/A time=00:21:53.85 bitrate=N/A speed=18.9x    frame=31617 fps=451 q=-0.0 size=N/A time=00:21:58.69 bitrate=N/A speed=18.8x    frame=31843 fps=451 q=-0.0 size=N/A time=00:22:08.11 bitrate=N/A speed=18.8x    frame=32087 fps=451 q=-0.0 size=N/A time=00:22:18.29 bitrate=N/A speed=18.8x    frame=32361 fps=451 q=-0.0 size=N/A time=00:22:29.72 bitrate=N/A speed=18.8x    frame=32625 fps=452 q=-0.0 size=N/A time=00:22:40.73 bitrate=N/A speed=18.8x    frame=32893 fps=452 q=-0.0 size=N/A time=00:22:51.91 bitrate=N/A speed=18.9x    frame=33117 fps=452 q=-0.0 size=N/A time=00:23:01.25 bitrate=N/A speed=18.9x    frame=33316 fps=452 q=-0.0 size=N/A time=00:23:09.55 bitrate=N/A speed=18.8x    frame=33524 fps=451 q=-0.0 size=N/A time=00:23:18.23 bitrate=N/A speed=18.8x    frame=33742 fps=451 q=-0.0 size=N/A time=00:23:27.32 bitrate=N/A speed=18.8x    frame=33937 fps=451 q=-0.0 size=N/A time=00:23:35.45 bitrate=N/A speed=18.8x    frame=34078 fps=450 q=-0.0 size=N/A time=00:23:41.33 bitrate=N/A speed=18.7x    frame=34291 fps=449 q=-0.0 size=N/A time=00:23:50.22 bitrate=N/A speed=18.7x    frame=34483 fps=449 q=-0.0 size=N/A time=00:23:58.22 bitrate=N/A speed=18.7x    frame=34687 fps=448 q=-0.0 size=N/A time=00:24:06.73 bitrate=N/A speed=18.7x    frame=34921 fps=448 q=-0.0 size=N/A time=00:24:16.49 bitrate=N/A speed=18.7x    frame=35129 fps=448 q=-0.0 size=N/A time=00:24:25.17 bitrate=N/A speed=18.7x    [Parsed_psnr_10 @ 0000024377dbfb40] PSNR y:48.442060 u:50.117607 v:50.230535 average:48.946249 min:36.456460 max:inf
[out#0/null @ 00000243712cec00] video:15116KiB audio:275124KiB subtitle:0KiB other streams:0KiB global headers:0KiB muxing overhead: unknown
frame=35178 fps=448 q=-0.0 Lsize=N/A time=00:24:27.21 bitrate=N/A speed=18.7x    
